{
    "asset" : {
        "generator" : "Khronos glTF Blender I/O v1.5.17",
        "version" : "2.0"
    },
    "scene" : 0,
    "scenes" : [
        {
            "extras" : {
                "glTF2ExportSettings" : {
                    "export_apply" : 1,
                    "export_extras" : 1,
                    "export_format" : "GLTF_EMBEDDED",
                    "use_selection" : 1
                }
            },
            "name" : "Scene",
            "nodes" : [
                0
            ]
        }
    ],
    "nodes" : [
        {
            "mesh" : 0,
            "name" : "Hair"
        }
    ],
    "materials" : [
        {
            "doubleSided" : true,
            "name" : "Material.001",
            "pbrMetallicRoughness" : {}
        }
    ],
    "meshes" : [
        {
            "name" : "Cube.003",
            "primitives" : [
                {
                    "attributes" : {
                        "POSITION" : 0,
                        "NORMAL" : 1,
                        "TEXCOORD_0" : 2,
                        "COLOR_0" : 3
                    },
                    "indices" : 4,
                    "material" : 0
                }
            ]
        }
    ],
    "accessors" : [
        {
            "bufferView" : 0,
            "componentType" : 5126,
            "count" : 3457,
            "max" : [
                0.30356088280677795,
                5.934370517730713,
                0.2000066488981247
            ],
            "min" : [
                -0.3035627603530884,
                4.766696453094482,
                -0.6054362654685974
            ],
            "type" : "VEC3"
        },
        {
            "bufferView" : 1,
            "componentType" : 5126,
            "count" : 3457,
            "type" : "VEC3"
        },
        {
            "bufferView" : 2,
            "componentType" : 5126,
            "count" : 3457,
            "type" : "VEC2"
        },
        {
            "bufferView" : 3,
            "componentType" : 5123,
            "count" : 3457,
            "normalized" : true,
            "type" : "VEC4"
        },
        {
            "bufferView" : 4,
            "componentType" : 5123,
            "count" : 10128,
            "type" : "SCALAR"
        }
    ],
    "bufferViews" : [
        {
            "buffer" : 0,
            "byteLength" : 41484,
            "byteOffset" : 0
        },
        {
            "buffer" : 0,
            "byteLength" : 41484,
            "byteOffset" : 41484
        },
        {
            "buffer" : 0,
            "byteLength" : 27656,
            "byteOffset" : 82968
        },
        {
            "buffer" : 0,
            "byteLength" : 27656,
            "byteOffset" : 110624
        },
        {
            "buffer" : 0,
            "byteLength" : 20256,
            "byteOffset" : 138280
        }
    ],
    "buffers" : [
        {
            "byteLength" : 158536,
            "uri" : "data:application/octet-stream;base64,"
        }
    ]
}
