{
    "asset" : {
        "generator" : "Khronos glTF Blender I/O v1.5.17",
        "version" : "2.0"
    },
    "scene" : 0,
    "scenes" : [
        {
            "extras" : {
                "glTF2ExportSettings" : {
                    "export_apply" : 1,
                    "export_extras" : 1,
                    "export_format" : "GLTF_EMBEDDED",
                    "use_selection" : 1
                }
            },
            "name" : "Scene",
            "nodes" : [
                0
            ]
        }
    ],
    "nodes" : [
        {
            "mesh" : 0,
            "name" : "NewTop",
            "scale" : [
                1.0144132375717163,
                1.0144132375717163,
                1.0144132375717163
            ],
            "translation" : [
                -0.021256810054183006,
                -0.0673913061618805,
                0.003646788652986288
            ]
        }
    ],
    "materials" : [
        {
            "doubleSided" : true,
            "name" : "Material.001",
            "pbrMetallicRoughness" : {}
        }
    ],
    "meshes" : [
        {
            "name" : "Cube.007",
            "primitives" : [
                {
                    "attributes" : {
                        "POSITION" : 0,
                        "NORMAL" : 1,
                        "TEXCOORD_0" : 2
                    },
                    "indices" : 3,
                    "material" : 0
                }
            ]
        }
    ],
    "accessors" : [
        {
            "bufferView" : 0,
            "componentType" : 5126,
            "count" : 1526,
            "max" : [
                1.163464069366455,
                5.2626543045043945,
                0.15237288177013397
            ],
            "min" : [
                -1.163464069366455,
                3.155714511871338,
                -0.557832658290863
            ],
            "type" : "VEC3"
        },
        {
            "bufferView" : 1,
            "componentType" : 5126,
            "count" : 1526,
            "type" : "VEC3"
        },
        {
            "bufferView" : 2,
            "componentType" : 5126,
            "count" : 1526,
            "type" : "VEC2"
        },
        {
            "bufferView" : 3,
            "componentType" : 5123,
            "count" : 7488,
            "type" : "SCALAR"
        }
    ],
    "bufferViews" : [
        {
            "buffer" : 0,
            "byteLength" : 18312,
            "byteOffset" : 0
        },
        {
            "buffer" : 0,
            "byteLength" : 18312,
            "byteOffset" : 18312
        },
        {
            "buffer" : 0,
            "byteLength" : 12208,
            "byteOffset" : 36624
        },
        {
            "buffer" : 0,
            "byteLength" : 14976,
            "byteOffset" : 48832
        }
    ],
    "buffers" : [
        {
            "byteLength" : 63808,
            "uri" : "data:application/octet-stream;base64,"
        }
    ]
}
