{
    "asset" : {
        "generator" : "Khronos glTF Blender I/O v1.5.17",
        "version" : "2.0"
    },
    "extensionsUsed" : [
        "KHR_materials_transmission"
    ],
    "scene" : 0,
    "scenes" : [
        {
            "extras" : {
                "glTF2ExportSettings" : {
                    "export_apply" : 1,
                    "export_extras" : 1,
                    "export_format" : "GLTF_EMBEDDED",
                    "use_selection" : 1
                }
            },
            "name" : "Scene",
            "nodes" : [
                0
            ]
        }
    ],
    "nodes" : [
        {
            "mesh" : 0,
            "name" : "Pajamas",
            "scale" : [
                1.0291801691055298,
                1.0291801691055298,
                1.0291801691055298
            ]
        }
    ],
    "materials" : [
        {
            "doubleSided" : true,
            "extensions" : {
                "KHR_materials_transmission" : {
                    "transmissionFactor" : 0.5181818008422852
                }
            },
            "name" : "RED SILK",
            "pbrMetallicRoughness" : {
                "baseColorFactor" : [
                    0.008179432712495327,
                    0.029108477756381035,
                    0.44985562562942505,
                    1
                ],
                "metallicFactor" : 0,
                "roughnessFactor" : 0.5454545617103577
            }
        }
    ],
    "meshes" : [
        {
            "name" : "Cube.002",
            "primitives" : [
                {
                    "attributes" : {
                        "POSITION" : 0,
                        "NORMAL" : 1,
                        "TEXCOORD_0" : 2
                    },
                    "indices" : 3,
                    "material" : 0
                }
            ]
        }
    ],
    "accessors" : [
        {
            "bufferView" : 0,
            "componentType" : 5126,
            "count" : 12449,
            "max" : [
                0.696150541305542,
                4.869086742401123,
                0.24174460768699646
            ],
            "min" : [
                -0.6961506009101868,
                0.4813242554664612,
                -0.6322196125984192
            ],
            "type" : "VEC3"
        },
        {
            "bufferView" : 1,
            "componentType" : 5126,
            "count" : 12449,
            "type" : "VEC3"
        },
        {
            "bufferView" : 2,
            "componentType" : 5126,
            "count" : 12449,
            "type" : "VEC2"
        },
        {
            "bufferView" : 3,
            "componentType" : 5123,
            "count" : 22368,
            "type" : "SCALAR"
        }
    ],
    "bufferViews" : [
        {
            "buffer" : 0,
            "byteLength" : 149388,
            "byteOffset" : 0
        },
        {
            "buffer" : 0,
            "byteLength" : 149388,
            "byteOffset" : 149388
        },
        {
            "buffer" : 0,
            "byteLength" : 99592,
            "byteOffset" : 298776
        },
        {
            "buffer" : 0,
            "byteLength" : 44736,
            "byteOffset" : 398368
        }
    ],
    "buffers" : [
        {
            "byteLength" : 443104,
            "uri" : "data:application/octet-stream;base64,"
        }
    ]
}
